<?xml version="1.0" encoding="iso-8859-1"?>
<!-- Uploaded to: SVG Repo, www.svgrepo.com, Generator: SVG Repo Mixer Tools -->
<svg fill="#000000" version="1.1" id="Capa_1" xmlns="http://www.w3.org/2000/svg" xmlns:xlink="http://www.w3.org/1999/xlink" 
	 viewBox="0 0 60 60" xml:space="preserve">
<g>
	<g>
		<path d="M44,0c-2.4,0-4.9,0.6-7,1.6c-4.3-2.1-9.7-2.1-14,0C20.8,0.5,18.4,0,16,0C7.2,0,0,7.2,0,16c0,7.5,5,14,12,15.8V59
			c0,0.6,0.4,1,1,1h34c0.6,0,1-0.4,1-1V31.8C55,30,60,23.5,60,16C60,7.2,52.8,0,44,0z M14.1,58v-4H46v4H14.1z M46.8,30
			c-0.5,0.1-0.8,0.5-0.8,1v21H14.1V32H32v-2H13.3C6.9,28.7,2.1,22.7,2.1,16c0-7.7,6.3-14,14-14c2.3,0,4.5,0.6,6.5,1.6
			c0.3,0.2,0.6,0.2,0.9,0c4-2.1,9.1-2.1,13.1,0c0.3,0.2,0.6,0.2,0.9,0C39.4,2.5,41.7,2,44,2c7.7,0,14,6.3,14,14
			C58,22.7,53.2,28.7,46.8,30z"/>
		<rect x="17" y="48" width="2" height="2"/>
		<rect x="21" y="48" width="2" height="2"/>
		<rect x="25" y="48" width="2" height="2"/>
		<rect x="29" y="48" width="2" height="2"/>
		<rect x="33" y="48" width="2" height="2"/>
		<rect x="37" y="48" width="2" height="2"/>
		<rect x="41" y="48" width="2" height="2"/>
	</g>
</g>
</svg>